<?xml version="1.0" encoding="UTF-8" standalone="no"?>
<!-- Created with Inkscape (http://www.inkscape.org/) -->

<svg
   width="1440"
   height="1080"
   viewBox="0 0 1440 1080"
   version="1.1"
   id="SVGRoot"
   sodipodi:docname="drawing.svg"
   xml:space="preserve"
   inkscape:version="1.2.2 (732a01da63, 2022-12-09)"
   inkscape:export-filename="drawing.png"
   inkscape:export-xdpi="96"
   inkscape:export-ydpi="96"
   xmlns:inkscape="http://www.inkscape.org/namespaces/inkscape"
   xmlns:sodipodi="http://sodipodi.sourceforge.net/DTD/sodipodi-0.dtd"
   xmlns="http://www.w3.org/2000/svg"
   xmlns:svg="http://www.w3.org/2000/svg"><sodipodi:namedview
     id="namedview2975"
     pagecolor="#ffffff"
     bordercolor="#000000"
     borderopacity="0.25"
     inkscape:showpageshadow="2"
     inkscape:pageopacity="0.0"
     inkscape:pagecheckerboard="0"
     inkscape:deskcolor="#d1d1d1"
     inkscape:document-units="px"
     showgrid="false"
     inkscape:zoom="0.50646226"
     inkscape:cx="722.65997"
     inkscape:cy="832.24366"
     inkscape:window-width="1920"
     inkscape:window-height="991"
     inkscape:window-x="-9"
     inkscape:window-y="-9"
     inkscape:window-maximized="1"
     inkscape:current-layer="layer1"
     showguides="true" /><defs
     id="defs2970"><inkscape:path-effect
       effect="bspline"
       id="path-effect11374"
       is_visible="true"
       lpeversion="1"
       weight="33.333333"
       steps="2"
       helper_size="0"
       apply_no_weight="true"
       apply_with_weight="true"
       only_selected="false" /><inkscape:path-effect
       effect="bspline"
       id="path-effect11368"
       is_visible="true"
       lpeversion="1"
       weight="33.333333"
       steps="2"
       helper_size="0"
       apply_no_weight="true"
       apply_with_weight="true"
       only_selected="false" /><inkscape:path-effect
       effect="bspline"
       id="path-effect11260"
       is_visible="true"
       lpeversion="1"
       weight="33.333333"
       steps="2"
       helper_size="0"
       apply_no_weight="true"
       apply_with_weight="true"
       only_selected="false" /></defs><g
     inkscape:label="Layer 1"
     inkscape:groupmode="layer"
     id="layer1"><path
       id="path12391"
       style="fill:#ff9a85;fill-opacity:1;stroke-width:0.377953;stroke-linecap:round;stroke-dasharray:0.377952, 0.755905"
       d="M 537.03061,69.567205 C 388.1824,-13.312267 210.78938,109.0498 175.84137,261.75194 c -41.72603,153.75595 -29.98425,344.1926 78.04612,468.16623 155.5972,146.38318 398.91813,123.11352 557.04754,267.51229 69.2789,43.26764 157.96044,49.19044 237.06807,25.81504 107.0425,-31.62994 196.5556,-116.90342 196.7501,-235.88539 C 1257.8867,577.45241 1175.4785,345.06122 979.70931,243.63992 873.23259,188.65889 749.16545,182.15151 644.01967,122.02441 607.95704,105.36755 572.40074,87.640185 537.03061,69.567205 Z"
       sodipodi:nodetypes="ccccscccc" /><path
       id="path12389"
       style="fill:#ffbfb3;fill-opacity:1;stroke-width:0.377953;stroke-linecap:round;stroke-dasharray:0.377952, 0.755905"
       d="M 1240.3485,669.98166 C 1398.9193,576.837 1382.1397,344.81822 1259.1796,228.73719 1138.9481,105.77274 955.32721,12.485715 780.85625,45.162736 559.50396,109.83607 448.00348,348.97254 227.11197,417.08798 43.166886,513.05925 -7.1631292,822.15538 185.17818,935.69896 373.30386,1062.7867 634.63285,1113.2795 836.13273,986.62299 945.55799,917.63689 1019.506,805.75725 1132.9912,740.82561 c 35.2332,-24.44006 71.1854,-47.82318 107.3573,-70.84395 z"
       sodipodi:nodetypes="ccccccccccccc" /><path
       id="path12386"
       style="fill:#ffeae5;fill-opacity:1;stroke-width:0.377953;stroke-linecap:round;stroke-dasharray:0.377952, 0.755905"
       d="M 348.7168,147.53125 C 166.98399,119.35654 33.202939,309.66392 54.998831,477.35096 70.326886,648.6428 153.52258,837.05083 309.31746,922.11467 521.66176,1012.0556 759.2951,897.38649 973.46004,984.37011 1176.6327,1026.4076 1411.148,818.85976 1334.013,609.24699 1268.711,391.81145 1098.2606,187.38779 862.0805,158.01002 733.69248,142.2149 605.64596,182.08282 476.67849,160.57928 433.93042,157.21878 391.29408,152.58483 348.7168,147.53125 Z"
       sodipodi:nodetypes="ccccccccccccc" /><g
       id="g12260"
       transform="translate(-64.284536)"><g
         id="g2914"
         transform="translate(-1049.8668,33.871034)"><g
           id="g9622"
           transform="translate(1643.933,615.6845)"><g
             id="freepik--Floor--inject-148"><path
               d="m 729.53,428 c 0,0.14 -158.8,0.26 -354.64,0.26 -195.84,0 -354.67,-0.12 -354.67,-0.26 0,-0.14 158.76,-0.26 354.67,-0.26 195.91,0 354.64,0.11 354.64,0.26 z"
               style="fill:#263238"
               id="path9140" /></g><g
             id="g9708"
             transform="matrix(-1,0,0,1,957.28674,-208.41082)"><g
               id="g9790"><g
                 id="freepik--Character--inject-148"
                 transform="translate(-85.166295,-1.3961688)"><path
                   d="m 437.87,241.25 a 4.83,4.83 0 0 1 -1.59,-9.47 5,5 0 0 1 4.78,-8.25 6,6 0 0 1 9.29,-4.48 6.73,6.73 0 0 1 8.31,0.23 4.8,4.8 0 0 1 3.85,8.34"
                   style="fill:#263238"
                   id="path9304" /><path
                   d="M 437.14,241.9 A 20.48,20.48 0 0 1 458.41,224 l 1.06,0.05 c 11.39,1.2 16.74,11.54 15.22,22.9 l -3.43,38 -0.9,8.95 -25.89,-3.06 0.49,-9.69 c 0,0 -10.9,-2.22 -10.52,-13.21 0.18,-5.3 1.44,-16.2 2.7,-26.04 z"
                   style="fill:#99655c"
                   id="path9306" /><path
                   d="m 444.87,281.13 a 26.64,26.64 0 0 0 14.58,-3.54 c 0,0 -3.75,7.74 -14.66,6.24 z"
                   style="fill:#744a45"
                   id="path9308" /><path
                   d="m 439.56,252 a 1.57,1.57 0 0 0 1.43,1.65 1.51,1.51 0 0 0 1.69,-1.34 1.57,1.57 0 0 0 -1.44,-1.65 1.49,1.49 0 0 0 -1.68,1.34 z"
                   style="fill:#263238"
                   id="path9310" /><path
                   d="m 439.25,247.38 c 0.19,0.21 1.41,-0.61 3.1,-0.53 1.69,0.08 2.89,1 3.08,0.79 0.19,-0.21 -0.09,-0.47 -0.61,-0.88 a 4.31,4.31 0 0 0 -2.45,-0.89 4.11,4.11 0 0 0 -2.48,0.68 c -0.54,0.37 -0.73,0.73 -0.64,0.83 z"
                   style="fill:#263238"
                   id="path9312" /><path
                   d="m 454.92,252.79 a 1.58,1.58 0 0 0 1.44,1.65 1.51,1.51 0 0 0 1.69,-1.34 1.58,1.58 0 0 0 -1.44,-1.65 1.51,1.51 0 0 0 -1.69,1.34 z"
                   style="fill:#263238"
                   id="path9314" /><path
                   d="m 455.82,248.47 c 0.19,0.21 1.42,-0.61 3.1,-0.53 1.68,0.08 2.89,1 3.08,0.79 0.19,-0.21 -0.09,-0.47 -0.61,-0.89 a 4.38,4.38 0 0 0 -2.45,-0.88 4.11,4.11 0 0 0 -2.48,0.68 c -0.54,0.36 -0.73,0.73 -0.64,0.83 z"
                   style="fill:#263238"
                   id="path9316" /><path
                   d="m 449.11,260.69 a 11.52,11.52 0 0 0 -2.71,-0.62 c -0.43,-0.06 -0.84,-0.17 -0.9,-0.46 a 2.28,2.28 0 0 1 0.35,-1.27 c 0.46,-1 0.93,-2.09 1.43,-3.22 2,-4.59 3.45,-8.37 3.26,-8.45 -0.19,-0.08 -2,3.58 -3.93,8.17 l -1.38,3.24 a 2.53,2.53 0 0 0 -0.3,1.68 1.06,1.06 0 0 0 0.68,0.66 2.67,2.67 0 0 0 0.73,0.14 10.66,10.66 0 0 0 2.77,0.13 z"
                   style="fill:#263238"
                   id="path9318" /><path
                   d="m 455.46,243.13 c 0.2,0.44 1.67,0 3.45,0.07 1.78,0.07 3.27,0.39 3.46,0 0.08,-0.21 -0.22,-0.6 -0.85,-1 a 5.31,5.31 0 0 0 -2.64,-0.68 5.1,5.1 0 0 0 -2.62,0.67 c -0.61,0.34 -0.89,0.73 -0.8,0.94 z"
                   style="fill:#263238"
                   id="path9320" /><path
                   d="m 439.49,240.42 c 0.34,0.4 1.75,0.06 3.43,0.12 1.68,0.06 3.08,0.41 3.42,0 0.16,-0.19 0,-0.58 -0.65,-1 a 5.39,5.39 0 0 0 -2.75,-0.76 5.44,5.44 0 0 0 -2.77,0.64 c -0.61,0.42 -0.82,0.8 -0.68,1 z"
                   style="fill:#263238"
                   id="path9322" /><path
                   d="m 438.43,236.91 c 0,0 3.22,-6.74 6.61,-8.19 4.11,-1.75 5.63,2.73 9.5,1.84 3.87,-0.89 7.8,-2.57 11.57,0.57 4.12,3.43 2,5.61 2.05,10.49 0.15,19.8 3.49,25.56 5,16.3 0.16,-1 3,-1.69 3.64,-6 0.81,-5.56 1.34,-12.33 0.28,-16.35 -0.9,-3.39 -2.69,-5.78 -6,-8.49 -5.2,-4.26 -12.6,-4.7 -17.66,-4.42 -5.06,0.28 -15.04,5.62 -14.99,14.25 z"
                   style="fill:#263238"
                   id="path9324" /><path
                   d="m 472.43,257.59 a 3,3 0 0 1 3.35,-2.72 c 2,0.29 4.26,1.56 3.93,5.78 -0.59,7.5 -8,5.36 -8,5.14 0,-0.22 0.44,-5.07 0.72,-8.2 z"
                   style="fill:#99655c"
                   id="path9326" /><path
                   d="m 473.58,263.1 c 0,0 0.12,0.1 0.33,0.22 a 1.28,1.28 0 0 0 1,0.1 3.24,3.24 0 0 0 1.72,-2.78 4.37,4.37 0 0 0 -0.22,-1.9 1.51,1.51 0 0 0 -0.9,-1.08 0.67,0.67 0 0 0 -0.8,0.3 c -0.12,0.2 -0.08,0.35 -0.12,0.36 -0.04,0.01 -0.15,-0.14 -0.07,-0.44 a 0.85,0.85 0 0 1 0.33,-0.45 1,1 0 0 1 0.74,-0.13 1.86,1.86 0 0 1 1.27,1.27 4.47,4.47 0 0 1 0.29,2.12 c -0.17,1.51 -1.05,2.86 -2.16,3.09 a 1.41,1.41 0 0 1 -1.18,-0.29 c -0.24,-0.21 -0.26,-0.38 -0.23,-0.39 z"
                   style="fill:#744a45"
                   id="path9328" /><path
                   d="m 473,243 a 7.1,7.1 0 0 1 -3.25,1.32 2.45,2.45 0 0 1 -2.63,-1.85 c -0.07,-0.53 0.09,-1.13 -0.23,-1.55 -0.32,-0.42 -1.15,-0.38 -1.79,-0.34 a 4.8,4.8 0 0 1 -4.81,-3.67 2,2 0 0 1 -2.71,0.13 10.9,10.9 0 0 1 -1.94,-2.28 3.07,3.07 0 0 0 -2.52,-1.41 7.91,7.91 0 0 1 -1.65,0.28 c -1,-0.13 -1.41,-1.31 -1.51,-2.3 -0.1,-0.99 -0.16,-2.13 -1,-2.7 -0.84,-0.57 -1.77,-0.29 -2.69,-0.2 -0.92,0.09 -2.07,-0.18 -2.26,-1.07 a 1.77,1.77 0 0 1 0.4,-1.35 4.87,4.87 0 0 1 5.82,-1.57 6.6,6.6 0 0 1 12.17,-0.71 6.69,6.69 0 0 1 10.6,2.97 4.86,4.86 0 0 1 5.1,7.3 4.6,4.6 0 0 1 2.36,3.78 c 0,1.56 -1.63,3 -3.11,2.56 a 2.69,2.69 0 0 1 -4.77,2.46"
                   style="fill:#263238"
                   id="path9330" /><path
                   d="m 449.56,226.66 a 0.5,0.5 0 0 0 0,0.14 2.19,2.19 0 0 0 0,0.4 4.55,4.55 0 0 0 0.47,1.47 5.44,5.44 0 0 0 1.59,1.86 5,5 0 0 0 3,1 l -0.12,-0.18 a 2.73,2.73 0 0 0 0.05,2.08 7.56,7.56 0 0 0 1.2,1.91 6,6 0 0 0 0.8,0.9 2.81,2.81 0 0 0 3.63,-0.26 l -0.28,-0.09 a 5.64,5.64 0 0 0 2.21,4 4.1,4.1 0 0 0 2.42,0.92 7.39,7.39 0 0 0 2.46,-0.42 l -0.2,-0.1 a 5.81,5.81 0 0 0 1.67,2.4 3.18,3.18 0 0 0 2.58,0.84 4.15,4.15 0 0 0 3.34,-3.09 l -0.18,0.07 a 3.88,3.88 0 0 0 2.56,0.5 4.1,4.1 0 0 0 1.84,-0.72 3.41,3.41 0 0 0 0.88,-0.87 2.43,2.43 0 0 0 0.21,-0.38 5,5 0 0 1 -1.16,1.15 4.19,4.19 0 0 1 -1.79,0.64 3.78,3.78 0 0 1 -2.42,-0.51 l -0.13,-0.09 v 0.16 a 3.92,3.92 0 0 1 -3.15,2.86 2.85,2.85 0 0 1 -2.34,-0.79 5.62,5.62 0 0 1 -1.57,-2.27 v -0.15 l -0.15,0.05 a 7.15,7.15 0 0 1 -2.34,0.4 3.81,3.81 0 0 1 -2.25,-0.86 5.34,5.34 0 0 1 -2.08,-3.78 v -0.36 l -0.25,0.27 a 2.45,2.45 0 0 1 -2.17,0.66 2.2,2.2 0 0 1 -1,-0.43 5.59,5.59 0 0 1 -0.76,-0.84 7.63,7.63 0 0 1 -1.17,-1.83 2.47,2.47 0 0 1 -0.08,-1.88 l 0.07,-0.18 h -0.19 a 4.86,4.86 0 0 1 -2.91,-0.94 5.33,5.33 0 0 1 -1.57,-1.75 6.09,6.09 0 0 1 -0.72,-1.91 z"
                   style="fill:#455a64"
                   id="path9332" /><path
                   d="m 447.19,266.22 c 0,0.07 0.39,0.33 1.15,0.5 a 6.38,6.38 0 0 0 5.62,-1.67 c 0.55,-0.55 0.75,-1 0.69,-1 -0.06,0 -1.34,1.35 -3.48,2 -2.14,0.65 -3.93,-0.05 -3.98,0.17 z"
                   style="fill:#263238"
                   id="path9334" /><path
                   d="m 422.45,389.1 66.49,0.91 c 0,0 18.6,-7.78 23.71,-8 5.11,-0.22 15.25,0.44 19.94,8 4.85,7.81 5.53,21.57 -9.42,31.58 -14.55,9.74 -81.09,18.75 -90.21,17.92 l -16.82,-22.57 c 0,0 -0.17,-18.5 0,-19.38 0.17,-0.88 3,-8.81 3,-8.81 z"
                   style="fill:#263238"
                   id="path9336" /><path
                   d="m 459.36,419 39.71,14.75 -18.07,49.49 c -4.62,-2 -4.75,-31.09 -4.75,-31.09 l -25.83,-8.4 z"
                   style="fill:#ff725e"
                   id="path9338" /><g
                   style="opacity:0.6"
                   id="g9342"><path
                     d="m 479.67,436.07 a 2.15,2.15 0 0 1 2.82,-0.56 2.08,2.08 0 0 1 0.57,2.79 2.28,2.28 0 0 1 -3,0.57 2.14,2.14 0 0 1 -0.27,-3"
                     style="fill:#ffffff"
                     id="path9340" /></g><path
                   d="m 499.07,433.76 -4,-1.49 -15.89,48.1 c 0,0 0.16,2.56 1.8,2.87 z"
                   style="fill:#263238"
                   id="path9344" /><path
                   d="m 475.67,452.86 c 0.25,0.08 0.8,-1.08 2,-2 1.2,-0.92 2.46,-1.17 2.45,-1.42 -0.01,-0.25 -1.55,-0.41 -3,0.71 -1.45,1.12 -1.69,2.68 -1.45,2.71 z"
                   style="fill:#263238"
                   id="path9346" /><path
                   d="m 475.92,458.84 c 0.22,0.14 1,-0.76 2.33,-1.2 1.33,-0.44 2.49,-0.29 2.57,-0.54 0.08,-0.25 -1.23,-0.9 -2.87,-0.31 -1.64,0.59 -2.26,1.96 -2.03,2.05 z"
                   style="fill:#263238"
                   id="path9348" /><path
                   d="m 481.06,464.06 c 0.13,-0.2 -1,-1 -2.51,-0.84 -1.51,0.16 -2.49,1.07 -2.32,1.25 0.17,0.18 1.13,-0.27 2.4,-0.36 1.27,-0.09 2.37,0.18 2.43,-0.05 z"
                   style="fill:#263238"
                   id="path9350" /><path
                   d="m 470,450.29 c 0.26,0 0.33,-1.25 0.92,-2.58 0.59,-1.33 1.41,-2.24 1.25,-2.44 -0.16,-0.2 -1.39,0.51 -2.07,2.09 -0.68,1.58 -0.33,2.98 -0.1,2.93 z"
                   style="fill:#263238"
                   id="path9352" /><path
                   d="m 464.56,447 a 4.87,4.87 0 0 0 0.89,-2.48 11.86,11.86 0 0 0 0.16,-2.89 13.61,13.61 0 0 0 -0.24,-1.7 3.12,3.12 0 0 0 -0.31,-1 1.11,1.11 0 0 0 -1.24,-0.58 1.38,1.38 0 0 0 -0.94,0.86 3.59,3.59 0 0 0 -0.22,1 10.2,10.2 0 0 0 0,1.74 9.35,9.35 0 0 0 0.66,2.83 c 0.65,1.54 1.41,2.26 1.48,2.19 0.07,-0.07 -0.43,-0.91 -0.88,-2.4 a 10.93,10.93 0 0 1 -0.44,-2.67 9.54,9.54 0 0 1 0.09,-1.58 c 0,-0.57 0.21,-1 0.49,-1.07 0.11,0 0.15,0 0.26,0.16 a 2.41,2.41 0 0 1 0.22,0.7 11.61,11.61 0 0 1 0.27,1.58 14.23,14.23 0 0 1 0.05,2.74 17.83,17.83 0 0 0 -0.3,2.57 z"
                   style="fill:#263238"
                   id="path9354" /><path
                   d="m 465,446.78 c 0.07,-0.07 -0.62,-0.87 -2.15,-1.53 a 8.62,8.62 0 0 0 -4.58,-0.57 2.18,2.18 0 0 0 -1.83,1.12 1.24,1.24 0 0 0 0.32,1.29 3.68,3.68 0 0 0 0.81,0.59 5.93,5.93 0 0 0 1.67,0.61 6.08,6.08 0 0 0 2.95,-0.12 c 1.64,-0.5 2.29,-1.4 2.22,-1.45 a 24.38,24.38 0 0 1 -2.37,0.83 6,6 0 0 1 -2.62,-0.07 5.29,5.29 0 0 1 -1.41,-0.57 c -0.5,-0.26 -0.85,-0.62 -0.73,-0.79 a 1.49,1.49 0 0 1 1.13,-0.57 8.6,8.6 0 0 1 1.57,-0.13 9.6,9.6 0 0 1 2.65,0.43 c 1.5,0.46 2.31,1.05 2.37,0.93 z"
                   style="fill:#263238"
                   id="path9356" /><path
                   d="m 437.45,418 -35.57,16.5 20.3,44.37 c 4.12,-2.2 2.13,-29.05 2.13,-29.05 l 23.22,-9.63 z"
                   style="fill:#ff725e"
                   id="path9358" /><g
                   style="opacity:0.6"
                   id="g9362"><path
                     d="m 420,435.2 a 2,2 0 0 0 -2.64,-0.3 1.91,1.91 0 0 0 -0.33,2.61 2.11,2.11 0 0 0 2.8,0.31 2,2 0 0 0 0,-2.76"
                     style="fill:#ffffff"
                     id="path9360" /></g><path
                   d="m 401.88,434.48 3.59,-1.66 18.16,43.25 c 0,0 0,2.37 -1.45,2.78 z"
                   style="fill:#263238"
                   id="path9364" /><path
                   d="m 424.86,450.42 c -0.22,0.09 -0.81,-0.95 -2,-1.69 -1.19,-0.74 -2.35,-0.9 -2.36,-1.14 -0.01,-0.24 1.4,-0.49 2.81,0.44 1.41,0.93 1.77,2.34 1.55,2.39 z"
                   style="fill:#263238"
                   id="path9366" /><path
                   d="m 425.07,456 c -0.19,0.15 -1,-0.62 -2.24,-0.94 -1.24,-0.32 -2.32,-0.08 -2.41,-0.3 -0.09,-0.22 1.07,-0.92 2.62,-0.5 1.55,0.42 2.23,1.59 2.03,1.74 z"
                   style="fill:#263238"
                   id="path9368" /><path
                   d="m 420.71,461.15 c -0.14,-0.18 0.8,-1 2.24,-1 1.44,0 2.38,0.81 2.24,1 -0.14,0.19 -1.06,-0.15 -2.19,-0.15 -1.13,0 -2.17,0.35 -2.29,0.15 z"
                   style="fill:#263238"
                   id="path9370" /><path
                   d="m 429.91,447.64 c -0.24,0 -0.39,-1.14 -1,-2.32 -0.61,-1.18 -1.46,-2 -1.33,-2.16 0.13,-0.16 1.33,0.36 2.06,1.77 0.73,1.41 0.49,2.73 0.27,2.71 z"
                   style="fill:#263238"
                   id="path9372" /><path
                   d="m 434.69,444.17 a 4.59,4.59 0 0 1 -1,-2.23 10.57,10.57 0 0 1 -0.35,-2.65 10.9,10.9 0 0 1 0.09,-1.59 3.33,3.33 0 0 1 0.21,-0.91 1,1 0 0 1 1.11,-0.62 1.28,1.28 0 0 1 0.93,0.72 3.18,3.18 0 0 1 0.27,0.89 10,10 0 0 1 0.16,1.59 8.61,8.61 0 0 1 -0.41,2.67 c -0.48,1.46 -1.13,2.19 -1.21,2.13 -0.08,-0.06 0.33,-0.87 0.64,-2.28 a 10,10 0 0 0 0.21,-2.5 8.49,8.49 0 0 0 -0.19,-1.45 c -0.09,-0.53 -0.27,-0.93 -0.53,-0.95 -0.1,0 -0.14,0 -0.23,0.16 a 2.53,2.53 0 0 0 -0.16,0.67 c -0.07,0.51 -0.11,1 -0.13,1.48 a 13.68,13.68 0 0 0 0.16,2.52 16.17,16.17 0 0 1 0.43,2.35 z"
                   style="fill:#263238"
                   id="path9374" /><path
                   d="m 434.25,444 c -0.07,-0.06 0.51,-0.85 1.88,-1.57 a 8.1,8.1 0 0 1 2.57,-0.81 7.77,7.77 0 0 1 1.61,0 2,2 0 0 1 1.77,0.9 1.14,1.14 0 0 1 -0.2,1.22 3.19,3.19 0 0 1 -0.71,0.6 5.62,5.62 0 0 1 -4.22,0.78 c -1.55,-0.34 -2.22,-1.12 -2.16,-1.17 0.06,-0.05 0.84,0.44 2.25,0.6 a 5.79,5.79 0 0 0 2.41,-0.26 4.85,4.85 0 0 0 1.27,-0.63 c 0.44,-0.28 0.74,-0.63 0.61,-0.79 a 1.43,1.43 0 0 0 -1.09,-0.44 7.8,7.8 0 0 0 -1.45,0 9.14,9.14 0 0 0 -2.42,0.58 c -1.37,0.52 -2.03,1.12 -2.12,0.99 z"
                   style="fill:#263238"
                   id="path9376" /><path
                   d="m 419.14,388.75 c 0,0 -28.72,-10.72 -39.29,-9.33 -5.91,0.77 -15.15,5.28 -15.85,12.86 -0.7,7.58 1.14,17.7 11.36,22.64 10.22,4.94 51,23.23 60.69,26.05 9.69,2.82 33.85,9.42 33.85,9.42 l 9.17,-26.16 c 0,0 -50.07,-17.33 -52.71,-19.23 -2.64,-1.9 -9.34,-4.58 -9.34,-4.58 z"
                   style="fill:#263238"
                   id="path9378" /><path
                   d="m 519,392.31 -0.2,-0.05 -0.57,-0.18 c -0.51,-0.15 -1.26,-0.37 -2.24,-0.6 a 26.9,26.9 0 0 0 -3.6,-0.63 26,26 0 0 0 -4.83,0 28.06,28.06 0 0 0 -5.75,1.09 20,20 0 0 0 -3,1.19 l -3.12,1.52 c -4.3,2 -9.1,4.16 -14.21,6.18 -10.23,4.1 -20.05,6 -27.05,7.63 -3.52,0.78 -6.36,1.42 -8.32,1.88 l -2.25,0.54 -0.59,0.13 h -0.2 l 0.19,-0.07 0.58,-0.16 c 0.52,-0.14 1.27,-0.35 2.25,-0.59 2,-0.5 4.78,-1.18 8.29,-2 7,-1.65 16.79,-3.62 27,-7.71 5.1,-2 9.9,-4.11 14.19,-6.15 l 3.13,-1.51 a 19.45,19.45 0 0 1 3.08,-1.18 27.73,27.73 0 0 1 5.8,-1.07 26.06,26.06 0 0 1 4.87,0 24.62,24.62 0 0 1 3.61,0.68 c 1,0.25 1.72,0.49 2.22,0.66 l 0.57,0.21 z"
                   style="fill:#455a64"
                   id="path9380" /><path
                   d="m 517.45,388.52 c 0,0.05 -0.87,-0.1 -2.28,-0.25 a 34.43,34.43 0 0 0 -5.51,-0.16 34.83,34.83 0 0 0 -5.47,0.72 c -1.38,0.29 -2.23,0.54 -2.24,0.49 a 2.42,2.42 0 0 1 0.57,-0.23 c 0.38,-0.13 0.93,-0.3 1.62,-0.47 a 28.12,28.12 0 0 1 5.5,-0.82 28.91,28.91 0 0 1 5.56,0.25 c 0.7,0.1 1.27,0.21 1.66,0.3 a 2.38,2.38 0 0 1 0.59,0.17 z"
                   style="fill:#455a64"
                   id="path9382" /><path
                   d="m 407.06,396.35 c 0,0 -0.83,-0.58 -2.21,-1.43 a 29.71,29.71 0 0 0 -5.68,-2.72 30.08,30.08 0 0 0 -6.14,-1.45 c -1.6,-0.2 -2.61,-0.22 -2.61,-0.27 a 2.83,2.83 0 0 1 0.71,0 19.21,19.21 0 0 1 1.93,0.09 26.94,26.94 0 0 1 6.21,1.37 26.17,26.17 0 0 1 5.7,2.84 16.6,16.6 0 0 1 1.56,1.14 3,3 0 0 1 0.53,0.43 z"
                   style="fill:#455a64"
                   id="path9384" /><path
                   d="m 421.47,435.36 0.22,0.08 0.66,0.28 c 0.57,0.23 1.41,0.63 2.53,1.06 2.24,0.88 5.54,2.1 9.78,3.49 8.49,2.78 20.68,6.31 35.27,10 l -0.17,0.09 8.88,-24.64 0.09,0.19 -11,-4.51 -60.83,-25 v 0 0 c -2.47,-2.62 -4.75,-4.93 -6.88,-6.79 a 46,46 0 0 0 -5.78,-4.36 44.71,44.71 0 0 0 -4,-2.21 l -1.07,-0.49 -0.36,-0.18 a 3.41,3.41 0 0 1 0.37,0.15 l 1.08,0.47 a 37.75,37.75 0 0 1 4,2.17 46.25,46.25 0 0 1 5.82,4.32 c 2.15,1.86 4.45,4.16 6.94,6.78 v 0 l 60.87,24.94 11,4.52 0.14,0.06 -0.05,0.13 c -3.17,8.76 -6.18,17.09 -8.9,24.64 v 0.12 h -0.12 c -14.59,-3.7 -26.78,-7.27 -35.25,-10.09 -4.23,-1.41 -7.53,-2.66 -9.76,-3.57 -1.12,-0.45 -2,-0.86 -2.52,-1.1 l -0.65,-0.3 z"
                   style="fill:#455a64"
                   id="path9386" /><path
                   d="m 492.44,297.24 c 0,0 8.27,4.76 9.95,10.36 1,3.39 8.73,46.86 10,55.43 1.27,8.57 -1.36,14.92 -5,17.77 -3.64,2.85 -14.74,6.63 -14.74,6.63 l -15.65,5.05 -4.47,-11.37 14.84,-21.32 -1.44,-14.36 z"
                   style="fill:#ff725e"
                   id="path9388" /><path
                   d="M 476.19,289.73 470,286.18 c 0,0 -5.66,6.62 -13.38,5.81 a 19.43,19.43 0 0 1 -12.28,-6.72 l -23,4.68 v 0 c -1.54,0.31 -4.36,1.29 -7.05,5.14 -3,4.29 -17.24,23.32 -17.24,23.32 H 387 a 7.41,7.41 0 0 0 -6.56,3.95 c -1.7,3.24 -3.74,7.58 -3.54,9.38 0.33,3 -0.25,11.37 3.82,14 1.29,0.83 5.91,3.3 9.5,3.13 5.29,-0.25 11.43,-3 15,-5.48 3,-2.09 10,-9.34 12.66,-12.17 v 0.05 l 1.72,60.37 60.34,-1.72 12.5,-92.65 c 0,0 -15.64,-7.54 -16.25,-7.54 z"
                   style="fill:#ff725e"
                   id="path9390" /><path
                   d="m 417.67,305.9 c 0.09,0 0.24,7.48 0.35,16.71 0.11,9.23 0.13,16.72 0.05,16.72 -0.08,0 -0.25,-7.48 -0.36,-16.71 -0.11,-9.23 -0.12,-16.72 -0.04,-16.72 z"
                   style="fill:#263238"
                   id="path9392" /><path
                   d="m 499.75,354.7 c 0,0 -0.51,0.08 -1.42,0.26 a 17.73,17.73 0 0 0 -3.74,1.19 24,24 0 0 0 -5,3 43,43 0 0 0 -5.24,4.85 c -1.73,1.86 -3.31,3.71 -4.79,5.34 a 57.2,57.2 0 0 1 -4.11,4.19 28.23,28.23 0 0 1 -3.09,2.47 c -0.37,0.27 -0.69,0.45 -0.9,0.59 a 2,2 0 0 1 -0.33,0.18 l 0.3,-0.24 c 0.19,-0.15 0.5,-0.34 0.86,-0.63 a 34.18,34.18 0 0 0 3,-2.53 c 1.22,-1.13 2.59,-2.57 4.05,-4.22 1.46,-1.65 3,-3.49 4.77,-5.36 a 41.18,41.18 0 0 1 5.29,-4.86 23.37,23.37 0 0 1 5.06,-3 15.86,15.86 0 0 1 3.81,-1.11 10.15,10.15 0 0 1 1.07,-0.12 z"
                   style="fill:#263238"
                   id="path9394" /><path
                   d="m 501.12,350.61 c 0,0.06 -0.92,0.19 -2.36,0.59 a 21.94,21.94 0 0 0 -9.88,5.88 c -1,1.08 -1.58,1.83 -1.63,1.79 a 2.59,2.59 0 0 1 0.35,-0.55 14.75,14.75 0 0 1 1.12,-1.39 19.91,19.91 0 0 1 10,-5.95 14.36,14.36 0 0 1 1.75,-0.32 2.94,2.94 0 0 1 0.65,-0.05 z"
                   style="fill:#263238"
                   id="path9396" /><g
                   style="opacity:0.3"
                   id="g9400"><path
                     d="m 388.82,340 c 3.19,0.87 7,-3.73 9.93,-6.6 1.51,-1.5 3.08,-3.1 3.63,-5.15 a 8.14,8.14 0 0 0 -0.5,-5.14 19.19,19.19 0 0 0 -2.12,-4.13 c 0.27,2.48 0.88,6.28 0,9.39 a 16.57,16.57 0 0 1 -4.09,6.63 c -1.85,2.08 -4,4.26 -6.89,5"
                     id="path9398" /></g><path
                   d="m 402.47,337.39 c -0.06,0 0.31,-1.05 0.61,-2.79 a 21.12,21.12 0 0 0 0.3,-3.06 21.51,21.51 0 0 0 -1.17,-7.41 19.89,19.89 0 0 0 -1.21,-2.83 c -0.82,-1.55 -1.49,-2.42 -1.44,-2.46 a 3.46,3.46 0 0 1 0.5,0.59 8.35,8.35 0 0 1 0.51,0.74 c 0.19,0.3 0.42,0.63 0.63,1 a 19.58,19.58 0 0 1 1.29,2.83 21,21 0 0 1 1,3.7 22.27,22.27 0 0 1 0.23,3.82 19.63,19.63 0 0 1 -0.36,3.09 11.26,11.26 0 0 1 -0.28,1.17 8.39,8.39 0 0 1 -0.26,0.86 3.84,3.84 0 0 1 -0.35,0.75 z"
                   style="fill:#263238"
                   id="path9402" /><path
                   d="m 446.83,287.6 c 0,0.08 -0.67,0.49 -1.41,1.16 -0.74,0.67 -1.23,1.31 -1.31,1.26 a 4.52,4.52 0 0 1 2.72,-2.42 z"
                   style="fill:#263238"
                   id="path9404" /><path
                   d="m 453.11,291.25 c 0.06,0.06 -0.54,0.72 -1,1.68 -0.46,0.96 -0.68,1.83 -0.77,1.81 a 4.43,4.43 0 0 1 1.8,-3.49 z"
                   style="fill:#263238"
                   id="path9406" /><path
                   d="m 463.86,295 a 9.17,9.17 0 0 1 -0.69,-1.8 9.37,9.37 0 0 1 -0.62,-1.82 4.59,4.59 0 0 1 0.91,1.72 4.51,4.51 0 0 1 0.4,1.9 z"
                   style="fill:#263238"
                   id="path9408" /><path
                   d="m 470.78,291.76 c -0.1,0 -0.33,-1 -1,-2.14 -0.67,-1.14 -1.5,-1.82 -1.43,-1.89 a 4.17,4.17 0 0 1 1.69,1.73 4.24,4.24 0 0 1 0.74,2.3 z"
                   style="fill:#263238"
                   id="path9410" /><path
                   d="m 490.64,311.31 c 0.09,0 -0.94,8.26 -2.28,18.42 -1.34,10.16 -2.5,18.39 -2.59,18.37 -0.09,-0.02 0.94,-8.25 2.28,-18.41 1.34,-10.16 2.51,-18.39 2.59,-18.38 z"
                   style="fill:#263238"
                   id="path9412" /><path
                   d="m 400.22,324.66 a 3.59,3.59 0 0 1 0,0.86 7.52,7.52 0 0 1 -0.13,1 c 0,0.19 -0.07,0.4 -0.1,0.62 l -0.17,0.68 a 19.57,19.57 0 0 1 -1.19,3.24 23,23 0 0 1 -2.22,3.6 18.92,18.92 0 0 1 -2.95,3 12.62,12.62 0 0 1 -3,1.79 c -0.22,0.09 -0.44,0.19 -0.65,0.26 l -0.6,0.17 -0.53,0.15 -0.45,0.06 a 5.35,5.35 0 0 1 -0.85,0.07 16.22,16.22 0 0 0 3,-0.91 13.27,13.27 0 0 0 2.86,-1.81 19.7,19.7 0 0 0 2.88,-3 23.21,23.21 0 0 0 2.21,-3.54 19.21,19.21 0 0 0 1.23,-3.17 27.09,27.09 0 0 0 0.66,-3.07 z"
                   style="fill:#263238"
                   id="path9414" /><g
                   style="opacity:0.3"
                   id="g9418"><path
                     d="m 488.7,393.67 c 2.56,-1.24 3.14,-4.55 3.4,-7.38 q 1.15,-12.45 2.3,-24.88 c 0.36,-3.9 0.53,-8.35 -2.22,-11.14 -2.51,-2.54 -6.5,-2.7 -10.08,-2.69 -22.08,0.07 -41.57,0.71 -63.65,0.77 l 1.12,38.65 z"
                     id="path9416" /></g><path
                   d="m 408.93,354.34 2.35,44.79 a 3.27,3.27 0 0 0 3.29,3.08 l 71.35,0.13 a 3.27,3.27 0 0 0 3.28,-3.1 l 2.73,-44 c 0.09,-1.83 -1.21,-4.26 -3.07,-4.3 h -76.58 a 3.26,3.26 0 0 0 -3.35,3.4 z"
                   style="fill:#e0e0e0"
                   id="path9420" /><path
                   d="m 408.93,354.34 c 0,0 0,-0.06 0,-0.17 0,-0.11 0,-0.28 0,-0.5 a 3.17,3.17 0 0 1 0.85,-1.74 3.23,3.23 0 0 1 1.19,-0.82 4.33,4.33 0 0 1 1.72,-0.24 h 4.34 l 27.65,-0.05 h 41 2.91 a 2.6,2.6 0 0 1 1.48,0.38 3.8,3.8 0 0 1 1.09,1.06 5.19,5.19 0 0 1 0.89,2.89 c -0.06,1 -0.11,2 -0.17,3 q -0.37,6 -0.76,12.33 c -0.52,8.38 -1.06,17.06 -1.61,25.95 l -0.1,1.66 a 16.31,16.31 0 0 1 -0.14,1.68 3.41,3.41 0 0 1 -2.15,2.53 4.19,4.19 0 0 1 -1.67,0.22 h -4.91 -12.81 -24.22 l -21.91,-0.06 h -6.29 c -0.41,0 -0.82,0 -1.24,0 a 3.42,3.42 0 0 1 -2.94,-3.44 q -0.06,-1.17 -0.12,-2.31 c -0.08,-1.53 -0.15,-3 -0.23,-4.48 -0.59,-11.65 -1.07,-21.08 -1.4,-27.61 -0.16,-3.25 -0.28,-5.78 -0.36,-7.5 0,-0.86 -0.07,-1.51 -0.09,-2 -0.02,-0.49 0,-0.66 0,-0.66 0,0 0,0.22 0.05,0.66 0.05,0.44 0.07,1.1 0.12,1.95 0.1,1.73 0.24,4.25 0.42,7.51 0.36,6.52 0.87,16 1.5,27.6 0.08,1.46 0.16,2.95 0.24,4.48 q 0.06,1.14 0.12,2.31 a 3.25,3.25 0 0 0 0.75,2.11 3.18,3.18 0 0 0 2,1.1 12,12 0 0 0 1.21,0 h 6.29 21.91 24.22 12.81 4.91 A 3.84,3.84 0 0 0 487,402 a 3.11,3.11 0 0 0 2,-2.3 c 0.09,-0.51 0.09,-1.09 0.13,-1.63 l 0.11,-1.67 c 0.55,-8.88 1.08,-17.56 1.6,-25.94 q 0.39,-6.29 0.77,-12.34 l 0.18,-3 a 4.88,4.88 0 0 0 -0.84,-2.72 2.65,2.65 0 0 0 -2.33,-1.32 h -2.92 -41 -27.65 -4.34 a 4,4 0 0 0 -1.69,0.22 3.16,3.16 0 0 0 -1.18,0.78 3.21,3.21 0 0 0 -0.86,1.71 c -0.06,0.32 0.02,0.55 -0.05,0.55 z"
                   style="fill:#263238"
                   id="path9422" /><path
                   d="M 455.16,376.19 A 4.21,4.21 0 1 1 451,372 a 4.2,4.2 0 0 1 4.16,4.19 z"
                   style="fill:#ffffff"
                   id="path9424" /><path
                   d="m 455.16,376.19 c 0,0 0,-0.38 -0.19,-1 a 4.12,4.12 0 0 0 -5.4,-2.8 4,4 0 0 0 -1.87,1.42 4,4 0 0 0 0,4.79 4,4 0 0 0 1.87,1.42 4.14,4.14 0 0 0 5.4,-2.8 c 0.17,-0.64 0.16,-1 0.19,-1 a 0.8,0.8 0 0 1 0,0.27 3.84,3.84 0 0 1 -0.09,0.77 4.19,4.19 0 0 1 -1.52,2.38 4.14,4.14 0 0 1 -1.81,0.83 4.38,4.38 0 0 1 -2.28,-0.17 4.28,4.28 0 0 1 -2,-1.51 4.33,4.33 0 0 1 0,-5.15 4.28,4.28 0 0 1 2,-1.51 4.38,4.38 0 0 1 2.28,-0.17 4.26,4.26 0 0 1 3.33,3.22 3.77,3.77 0 0 1 0.09,0.77 0.85,0.85 0 0 1 0,0.24 z"
                   style="fill:#263238"
                   id="path9426" /><path
                   d="m 411.34,359.3 c 0.08,0 0.43,7.52 0.78,16.81 0.35,9.29 0.56,16.82 0.48,16.82 -0.08,0 -0.44,-7.52 -0.79,-16.81 -0.35,-9.29 -0.56,-16.82 -0.47,-16.82 z"
                   style="fill:#263238"
                   id="path9428" /><path
                   d="m 389.89,300.85 c -0.42,-0.35 1.41,-7.39 1.41,-7.39 0,0 -4.84,-7.9 -5,-10.44 -0.16,-2.54 1.91,-7.77 1.91,-7.77 l 13.89,-3.57 c 0,0 4.46,8.28 5.35,11.21 0.89,2.93 -1.45,12.87 -1.45,12.87 l -2.35,5.09 c 0,0 -7.15,5.61 -13.76,0 z"
                   style="fill:#99655c"
                   id="path9430" /><path
                   d="m 386.36,284.54 a 29,29 0 0 1 -1.47,-3.08 c -0.87,-2.09 -1.95,-4.13 0,-5.3 a 2.6,2.6 0 0 1 2.1,-0.33 c 0,0 -0.3,-1.75 0.74,-2.41 a 2.26,2.26 0 0 1 2.06,-0.18 c 0,0 -0.33,-2.48 1.18,-3.53 a 3.69,3.69 0 0 1 3.85,-0.11 c 0,0 -1.2,-10.83 -1.3,-11.41 -0.38,-2.1 0.4,-4 2.49,-3.45 0.77,0.19 1.2,1 2.1,4.53 0.9,3.53 2.35,9.55 2.35,9.55 0,0 2.44,4.24 3.59,6.54 1.15,2.3 3.43,7.53 3.62,8.92 0.49,3.58 -1.61,8.33 -1.61,8.33 l -14.76,0.85 c 0,0 -4.38,-7.89 -4.94,-8.92 z"
                   style="fill:#99655c"
                   id="path9432" /><path
                   d="m 387.28,276.3 a 13.56,13.56 0 0 1 1.14,1.59 l 1.17,1.78 a 7.7,7.7 0 0 1 0.63,1.11 2.31,2.31 0 0 1 0.18,1.41 1.43,1.43 0 0 1 -0.94,1.09 1.84,1.84 0 0 1 -1.32,-0.16 6.36,6.36 0 0 1 -1,-0.61 l -0.8,-0.6 c -0.48,-0.37 -0.85,-0.69 -1.1,-0.92 -0.25,-0.23 -0.38,-0.37 -0.37,-0.39 0.01,-0.02 0.62,0.44 1.6,1.14 a 13.65,13.65 0 0 0 1.77,1.12 1.6,1.6 0 0 0 1.11,0.13 1.1,1.1 0 0 0 0.72,-0.87 2,2 0 0 0 -0.15,-1.22 7.45,7.45 0 0 0 -0.59,-1.08 L 388.24,278 a 11.85,11.85 0 0 1 -0.96,-1.7 z"
                   style="fill:#744a45"
                   id="path9434" /><path
                   d="m 399.38,277.59 a 5,5 0 0 1 0.16,-2.32 5,5 0 0 1 0.92,-2.14 c 0.08,0 -0.33,1 -0.62,2.21 -0.29,1.21 -0.37,2.25 -0.46,2.25 z"
                   style="fill:#744a45"
                   id="path9436" /><path
                   d="m 405.23,280.75 a 9.76,9.76 0 0 0 -4.93,-2.57 18.63,18.63 0 0 0 -5.63,-0.22 c -1.5,0.14 -3.21,0.52 -3.9,1.87 a 3.22,3.22 0 0 0 1.48,4 7.51,7.51 0 0 0 4.52,0.69 19,19 0 0 1 4.64,-0.19"
                   style="fill:#99655c"
                   id="path9438" /><path
                   d="m 401.41,284.29 c 0,0 -0.42,0 -1.16,0 a 29.16,29.16 0 0 0 -3.17,0.3 14.15,14.15 0 0 1 -2.21,0.09 6.11,6.11 0 0 1 -2.49,-0.63 3.82,3.82 0 0 1 -1.85,-2.14 3,3 0 0 1 -0.1,-1.54 2.55,2.55 0 0 1 0.81,-1.36 5.3,5.3 0 0 1 2.84,-1.11 27.62,27.62 0 0 1 2.8,-0.17 14.2,14.2 0 0 1 4.7,0.72 9.36,9.36 0 0 1 2.81,1.51 7.48,7.48 0 0 1 0.65,0.59 1.76,1.76 0 0 1 0.19,0.23 c 0,0 -0.3,-0.28 -0.91,-0.72 a 9.93,9.93 0 0 0 -2.81,-1.41 14.75,14.75 0 0 0 -4.62,-0.63 26.79,26.79 0 0 0 -2.77,0.18 5,5 0 0 0 -2.67,1 2.27,2.27 0 0 0 -0.72,1.2 2.66,2.66 0 0 0 0.09,1.37 3.53,3.53 0 0 0 1.69,2 5.8,5.8 0 0 0 2.37,0.62 12.94,12.94 0 0 0 2.18,-0.05 25.43,25.43 0 0 1 3.19,-0.21 8.17,8.17 0 0 1 0.86,0.09 0.94,0.94 0 0 1 0.3,0.07 z"
                   style="fill:#744a45"
                   id="path9440" /><path
                   d="m 387.39,276.47 c 1.55,2.36 2.92,4.95 4.23,7.45 a 4.6,4.6 0 0 0 1.48,1.93 c 0.56,0.34 1.95,-0.28 2.57,-0.5 l -4.26,-9.7"
                   style="fill:#99655c"
                   id="path9442" /><path
                   d="m 391.41,275.65 a 4.44,4.44 0 0 1 0.38,0.72 l 0.94,2 c 0.79,1.73 1.87,4.14 3.08,6.88 l 0.07,0.15 -0.16,0.06 c -0.46,0.16 -1,0.37 -1.49,0.51 a 2.76,2.76 0 0 1 -0.65,0.09 1.42,1.42 0 0 1 -0.35,0 1.2,1.2 0 0 1 -0.32,-0.16 3.41,3.41 0 0 1 -0.86,-0.92 c -0.44,-0.69 -0.75,-1.38 -1.09,-2 -0.67,-1.29 -1.29,-2.45 -1.82,-3.41 -0.53,-0.96 -1,-1.73 -1.29,-2.26 a 6.28,6.28 0 0 1 -0.46,-0.83 6,6 0 0 1 0.56,0.77 c 0.35,0.51 0.83,1.26 1.38,2.21 0.55,0.95 1.2,2.1 1.88,3.39 0.35,0.63 0.68,1.34 1.09,2 a 3,3 0 0 0 0.79,0.83 c 0.26,0.22 0.68,0.14 1.07,0.05 a 14.71,14.71 0 0 0 1.46,-0.49 l -0.09,0.21 c -1.2,-2.75 -2.25,-5.18 -3,-6.93 -0.35,-0.84 -0.63,-1.54 -0.86,-2.07 a 4.35,4.35 0 0 1 -0.26,-0.8 z"
                   style="fill:#744a45"
                   id="path9444" /><path
                   d="m 390.26,272.77 4.11,10.31 a 6.89,6.89 0 0 0 1.11,2.07 2.38,2.38 0 0 0 2.07,0.9 2.44,2.44 0 0 0 1.82,-2.38 7.56,7.56 0 0 0 -0.77,-3.13 66,66 0 0 1 -3,-9.65"
                   style="fill:#99655c"
                   id="path9446" /><path
                   d="m 395.65,270.89 a 1.41,1.41 0 0 1 0.11,0.32 c 0.06,0.24 0.14,0.54 0.24,0.91 0.21,0.79 0.52,1.93 1,3.33 0.48,1.4 1,3.05 1.7,4.85 a 10,10 0 0 1 0.86,2.95 3.11,3.11 0 0 1 -0.31,1.63 2.42,2.42 0 0 1 -1.25,1.22 2.06,2.06 0 0 1 -1.72,-0.14 3.29,3.29 0 0 1 -1.22,-1.15 18.77,18.77 0 0 1 -1.24,-2.8 l -1.88,-4.79 -1.27,-3.22 c -0.13,-0.36 -0.23,-0.65 -0.32,-0.88 a 1.37,1.37 0 0 1 -0.09,-0.32 1.3,1.3 0 0 1 0.15,0.29 l 0.38,0.87 1.33,3.2 c 0.55,1.37 1.21,3 1.94,4.77 a 18.1,18.1 0 0 0 1.23,2.75 2.87,2.87 0 0 0 1.1,1 1.77,1.77 0 0 0 1.47,0.13 2.09,2.09 0 0 0 1.07,-1.06 3,3 0 0 0 0.29,-1.49 9.92,9.92 0 0 0 -0.83,-2.86 c -0.69,-1.81 -1.23,-3.48 -1.64,-4.89 -0.41,-1.41 -0.69,-2.56 -0.87,-3.36 -0.08,-0.4 -0.15,-0.72 -0.18,-0.93 a 1.51,1.51 0 0 1 -0.05,-0.33 z"
                   style="fill:#744a45"
                   id="path9448" /><path
                   d="m 390.59,297 c 0,0 -9.42,27.75 -9.79,29.11 -0.37,1.36 1.86,11.28 5.95,13.63 4.09,2.35 12,-7.43 13,-11 1,-3.57 0,-9.66 0,-9.66 l 6.35,-23.91"
                   style="fill:#99655c"
                   id="path9450" /><path
                   d="m 399.76,292.63 a 1.75,1.75 0 0 1 -0.89,-0.11 5,5 0 0 1 -3.11,-2.85 1.86,1.86 0 0 1 -0.19,-0.88 6.31,6.31 0 0 0 4.19,3.84 z"
                   style="fill:#744a45"
                   id="path9452" /></g></g></g></g></g><g
         id="g10659"
         inkscape:label="logo"><g
           id="g9796"
           transform="matrix(-2.1775453,0,0,2.1775453,2086.0768,50.598174)"
           style="stroke-width:0.459233"><polygon
             points="405.24,198.54 413.29,207.21 377.34,241.89 354.79,220.05 363.46,211.38 378.58,225.16 "
             style="fill:#ff725e;stroke-width:0.459233"
             id="polygon9173"
             transform="matrix(-1,0,0,1,768.08,4.5343203)" /></g><g
           id="g10793"><g
             id="freepik--Character--inject-262"
             transform="translate(126.69671,256.57)"><path
               d="M 218.17,156.85 213.32,172 a 17.53,17.53 0 0 1 -13.61,12.19 l -32.38,6.08 -8.81,-0.28 8.81,-10.91 24.34,-8.3 a 6.52,6.52 0 0 0 4.91,-4.66 l 9.7,-21.09 12.27,7.53 z"
               style="fill:#b78876"
               id="path218" /><path
               d="m 265.92,142 c -0.45,2.35 -7.3,19.44 -7.3,19.44 0,0 -26.66,-9 -26.31,-10.36 0.29,-1.07 5.41,-18.19 11.55,-27.67 A 13.87,13.87 0 0 1 254.53,117 c 1.21,-0.08 3.81,1.17 4.52,1.57 5.61,3.15 10.38,5.27 6.87,23.43 z"
               style="fill:#455a64"
               id="path220" /><path
               d="m 228.3,108.87 c -12.06,1.35 -14,9.54 -19.64,17.61 l -8.13,15 14.95,9.17 -0.52,23 -7.12,22 56.25,-5.29 -5.2,-18.84 7.5,-29.58 c 0.57,-4 2.12,-11.53 1.07,-15.49 -3.28,-12.4 -16.16,-16 -25,-18.32 -1.83,-0.48 -10.65,-0.45 -12.18,-0.07"
               style="fill:#ff725e"
               id="path222" /><path
               d="m 265.43,141.76 a 2.48,2.48 0 0 0 -0.12,0.32 c -0.08,0.23 -0.18,0.55 -0.31,0.95 l -1.16,3.63 c -1,3.16 -2.39,7.67 -4.09,13.14 l 0.19,-0.09 -25,-9.24 -0.62,-0.26 0.1,0.21 a 111.2,111.2 0 0 1 5.82,-16.42 46.59,46.59 0 0 1 7.45,-12.07 16.4,16.4 0 0 1 4.21,-3.41 8.72,8.72 0 0 1 3.89,-1.15 5.31,5.31 0 0 1 0.79,0 l 0.7,0.07 c 0.21,0 0.41,0 0.59,0.07 l 0.48,0.13 0.66,0.17 h 0.23 a 0.61,0.61 0 0 0 -0.22,-0.08 l -0.65,-0.21 -0.48,-0.14 a 4.77,4.77 0 0 0 -0.6,-0.09 l -0.7,-0.09 a 5.47,5.47 0 0 0 -0.81,0 8.82,8.82 0 0 0 -4,1.12 16.5,16.5 0 0 0 -4.3,3.41 46.11,46.11 0 0 0 -7.55,12.1 108.12,108.12 0 0 0 -5.93,16.5 v 0.15 l 0.14,0.06 0.63,0.26 c 9.38,3.51 18.08,6.63 25.07,9.18 l 0.14,0.05 v -0.14 l 4,-13.19 c 0.46,-1.56 0.83,-2.79 1.08,-3.65 q 0.18,-0.6 0.27,-1 a 1.76,1.76 0 0 0 0.1,-0.29 z"
               style="fill:#263238"
               id="path224" /><path
               d="m 235.34,147 c 0,0.09 5.75,2.09 12.92,4.46 7.17,2.37 13,4.22 13,4.12 0,-0.1 -5.75,-2.09 -12.91,-4.46 -7.16,-2.37 -12.98,-4.2 -13.01,-4.12 z"
               style="fill:#263238"
               id="path226" /><polygon
               points="234.47,142.96 216.12,142.96 210.95,197.76 232.31,194.97 "
               style="fill:#263238"
               id="polygon228" /><g
               style="opacity:0.3"
               id="g232"><path
                 d="m 258.53,159.39 a 114.38,114.38 0 0 1 -4.16,14.43 31.51,31.51 0 0 1 -4.54,8.34 21.08,21.08 0 0 1 -10.91,6.65 34.49,34.49 0 0 1 -12.89,0.63 l 21.42,-12.1 5.7,-19.79 z"
                 id="path230" /></g><path
               d="m 256.07,158.28 -5.28,17.28 a 17.64,17.64 0 0 1 -13.61,12.35 l -32.39,6.15 -8.81,-0.29 8.81,-11 24.35,-8.4 a 6.58,6.58 0 0 0 4.91,-4.73 l 4.51,-17.39 z"
               style="fill:#b78876"
               id="path234" /><path
               d="m 215,173.05 a 9.49,9.49 0 0 0 0.16,-1.63 c 0.05,-1.15 0.12,-2.65 0.21,-4.47 0.16,-3.77 0.35,-9 0.53,-14.73 0.18,-5.73 0.3,-11 0.37,-14.74 0,-1.82 0,-3.32 0,-4.47 a 11.05,11.05 0 0 0 0,-1.64 9,9 0 0 0 -0.15,1.63 c -0.06,1.15 -0.13,2.65 -0.22,4.46 -0.16,3.77 -0.35,9 -0.53,14.74 -0.18,5.74 -0.3,11 -0.37,14.74 0,1.82 0,3.33 -0.05,4.47 a 11.05,11.05 0 0 0 0.05,1.64 z"
               style="fill:#263238"
               id="path236" /><path
               d="m 202.72,137.49 a 54.41,54.41 0 0 0 6.31,4 53.07,53.07 0 0 0 6.58,3.56 54.41,54.41 0 0 0 -6.31,-4 53.07,53.07 0 0 0 -6.58,-3.56 z"
               style="fill:#263238"
               id="path238" /><path
               d="m 128.61,307.61 -0.2,-9.9 19,-6.74 0.78,13.78 -1.06,0.51 c -4.77,2.25 -24.39,11.12 -28.05,11.45 -4.08,0.38 9.53,-9.1 9.53,-9.1 z"
               style="fill:#ff725e"
               id="path240" /><g
               style="opacity:0.4"
               id="g244"><path
                 d="m 122.05,312.5 c 0,0 -4.64,3.66 -3.63,4.26 1.01,0.6 21.17,-7.61 29.75,-12 l -0.19,-0.39 -23.44,9.78 c 0,0 -1.44,-2.02 -2.49,-1.65 z"
                 style="fill:#ffffff"
                 id="path242" /></g><path
               d="m 148.26,304.24 -0.29,0.16 -0.85,0.4 -3.12,1.45 c -2.67,1.2 -6.38,2.81 -10.52,4.5 -4.14,1.69 -7.92,3.14 -10.67,4.15 l -3.27,1.17 -0.89,0.3 a 1.37,1.37 0 0 1 -0.32,0.09 l 0.3,-0.13 0.88,-0.35 3.24,-1.24 c 2.73,-1.05 6.5,-2.52 10.64,-4.2 4.14,-1.68 7.86,-3.28 10.55,-4.44 l 3.18,-1.38 0.87,-0.37 a 1.32,1.32 0 0 1 0.27,-0.11 z"
               style="fill:#263238"
               id="path246" /><path
               d="m 124.66,314.41 a 8.26,8.26 0 0 0 -1.23,-1.29 7.43,7.43 0 0 0 -1.59,-0.78 2.57,2.57 0 0 1 1.73,0.6 2.53,2.53 0 0 1 1.09,1.47 z"
               style="fill:#263238"
               id="path248" /><path
               d="m 128.79,309.65 c 0,0.05 -0.41,-0.15 -0.83,-0.45 -0.42,-0.3 -0.74,-0.59 -0.7,-0.64 0.04,-0.05 0.41,0.15 0.83,0.45 0.42,0.3 0.74,0.58 0.7,0.64 z"
               style="fill:#263238"
               id="path250" /><path
               d="m 129.92,308.31 c 0,0.06 -0.38,0 -0.8,-0.16 -0.42,-0.16 -0.73,-0.32 -0.71,-0.38 0.02,-0.06 0.38,0 0.79,0.16 0.41,0.16 0.74,0.32 0.72,0.38 z"
               style="fill:#263238"
               id="path252" /><path
               d="m 130.14,306.27 c 0,0.06 -0.36,0.28 -0.87,0.5 a 2.2,2.2 0 0 1 -1,0.27 2.61,2.61 0 0 1 0.88,-0.49 2.31,2.31 0 0 1 0.99,-0.28 z"
               style="fill:#263238"
               id="path254" /><path
               d="m 130,305 c 0,0 -0.32,0.43 -0.9,0.72 A 1.94,1.94 0 0 1 128,306 c 0,-0.07 0.46,-0.22 1,-0.5 a 7,7 0 0 1 1,-0.5 z"
               style="fill:#263238"
               id="path256" /><path
               d="m 127.57,308.35 a 3.81,3.81 0 0 1 -1.14,0.45 7.18,7.18 0 0 1 -1.32,0.23 3.65,3.65 0 0 1 -0.81,0 0.68,0.68 0 0 1 -0.42,-0.24 0.49,0.49 0 0 1 0,-0.53 2.24,2.24 0 0 1 2.82,-0.43 2.19,2.19 0 0 1 0.68,0.6 0.74,0.74 0 0 1 0.15,0.3 3.32,3.32 0 0 0 -0.91,-0.76 2.25,2.25 0 0 0 -1.23,-0.24 1.93,1.93 0 0 0 -1.31,0.65 c -0.13,0.2 0,0.39 0.28,0.42 a 3.76,3.76 0 0 0 0.75,0 9.92,9.92 0 0 0 1.29,-0.17 c 0.72,-0.14 1.15,-0.32 1.17,-0.28 z"
               style="fill:#263238"
               id="path258" /><path
               d="m 127.3,308.53 a 1.25,1.25 0 0 1 -0.46,-0.74 2,2 0 0 1 0,-1 1.21,1.21 0 0 1 0.71,-1 0.5,0.5 0 0 1 0.56,0.38 1.31,1.31 0 0 1 0,0.59 3.74,3.74 0 0 1 -0.25,0.9 1.74,1.74 0 0 1 -0.47,0.73 c 0,0 0.15,-0.3 0.31,-0.78 a 4,4 0 0 0 0.2,-0.88 c 0.06,-0.3 0,-0.78 -0.31,-0.71 -0.31,0.07 -0.47,0.49 -0.56,0.78 a 2.15,2.15 0 0 0 0,0.87 4,4 0 0 0 0.27,0.86 z"
               style="fill:#263238"
               id="path260" /><path
               d="m 145.93,299.55 c 0,0 -0.53,0.16 -1.29,0.58 a 6.21,6.21 0 0 0 -2.37,2.33 6.13,6.13 0 0 0 -0.75,3.24 c 0,0.87 0.22,1.39 0.18,1.4 -0.04,0.01 -0.07,-0.12 -0.15,-0.36 a 5.31,5.31 0 0 1 -0.19,-1 5.76,5.76 0 0 1 3.21,-5.72 5,5 0 0 1 1,-0.38 1.2,1.2 0 0 1 0.36,-0.09 z"
               style="fill:#263238"
               id="path262" /><path
               d="m 141.11,293 a 63.57,63.57 0 0 1 3,7.22 35.38,35.38 0 0 1 -1.63,-3.57 32.64,32.64 0 0 1 -1.37,-3.65 z"
               style="fill:#263238"
               id="path264" /><path
               d="m 138.79,306.39 a 10.7,10.7 0 0 1 -2.48,1.31 10.54,10.54 0 0 1 -2.67,0.84 c 0,-0.06 1.17,-0.46 2.58,-1.05 1.41,-0.59 2.53,-1.16 2.57,-1.1 z"
               style="fill:#263238"
               id="path266" /><path
               d="m 142.25,305 c 0.06,0 0,0.28 0,0.59 0,0.31 0,0.58 0,0.6 0,0.02 -0.2,-0.24 -0.19,-0.6 0.01,-0.36 0.13,-0.59 0.19,-0.59 z"
               style="fill:#263238"
               id="path268" /><path
               d="m 142.89,302.82 c 0.06,0 0,0.26 -0.09,0.52 -0.09,0.26 -0.24,0.45 -0.3,0.42 -0.06,-0.03 0,-0.25 0.09,-0.51 0.09,-0.26 0.24,-0.45 0.3,-0.43 z"
               style="fill:#263238"
               id="path270" /><path
               d="m 144.46,301.32 c 0,0.07 -0.23,0.16 -0.45,0.36 -0.22,0.2 -0.35,0.41 -0.42,0.39 -0.07,-0.02 0,-0.33 0.27,-0.57 0.27,-0.24 0.59,-0.24 0.6,-0.18 z"
               style="fill:#263238"
               id="path272" /><path
               d="m 145.64,300.43 c 0.05,0.05 0,0.18 -0.14,0.3 -0.14,0.12 -0.26,0.17 -0.31,0.12 -0.05,-0.05 0,-0.18 0.15,-0.29 0.15,-0.11 0.26,-0.18 0.3,-0.13 z"
               style="fill:#263238"
               id="path274" /><path
               d="m 204.79,196.51 -55.73,1 a 17.89,17.89 0 0 0 -17.42,15.71 l -11,89.8 h 30.26 l 9.24,-77.57 H 204 Z"
               style="fill:#263238"
               id="path276" /><path
               d="m 121,297.35 c 0,0.14 6.63,0.3 14.81,0.35 8.18,0.05 14.67,-0.15 14.81,-0.17 0.94,-0.09 -6.63,-0.3 -14.81,-0.35 -8.18,-0.05 -14.81,0.03 -14.81,0.17 z"
               style="fill:#455a64"
               id="path278" /><path
               d="m 257.1,225.49 c 22.24,-7.36 7,-36.78 7,-36.78 l -97.22,9.14 a 14.07,14.07 0 0 0 -14.16,14.07 v 0 A 14.06,14.06 0 0 0 166.78,226 l 90.32,-0.49"
               style="fill:#263238"
               id="path280" /><polygon
               points="159.19,197.76 227.38,194.29 227.1,192.19 202.22,191.21 190.01,160.42 143.49,163.58 "
               style="fill:#455a64"
               id="polygon282" /><path
               d="m 171.7,180.39 a 2.44,2.44 0 1 0 0.76,-3.36 2.44,2.44 0 0 0 -0.76,3.36 z"
               style="fill:#ffffff"
               id="path284" /><path
               d="m 235.44,193.68 a 0.9,0.9 0 0 0 -0.28,0 h -0.82 l -3.13,0.13 -11.52,0.54 -38,2 c -1.85,0.08 -3.69,0.24 -5.49,0.26 -1.8,0.02 -3.6,0.1 -5.35,0.2 -1.75,0.1 -3.47,0.22 -5.15,0.39 a 19.53,19.53 0 0 0 -4.9,1 11.62,11.62 0 0 0 -4.07,2.47 10.13,10.13 0 0 0 -2.47,3.75 18.27,18.27 0 0 0 -1,4.06 27,27 0 0 0 -0.27,3.84 15.51,15.51 0 0 0 1.3,6.45 10.52,10.52 0 0 0 3,3.93 8.38,8.38 0 0 0 2.77,1.49 c 0.7,0.2 0.71,0.14 0,-0.1 a 8.78,8.78 0 0 1 -2.68,-1.54 10.7,10.7 0 0 1 -2.91,-3.89 15.41,15.41 0 0 1 -1.19,-6.35 26.54,26.54 0 0 1 0.3,-3.78 17.7,17.7 0 0 1 1,-4 9.93,9.93 0 0 1 2.39,-3.58 11.46,11.46 0 0 1 3.93,-2.36 18.92,18.92 0 0 1 4.78,-0.91 c 1.68,-0.16 3.39,-0.28 5.14,-0.38 1.75,-0.1 3.52,-0.17 5.33,-0.19 1.81,-0.02 3.64,-0.18 5.5,-0.26 l 38,-2.12 11.52,-0.7 3.13,-0.22 0.81,-0.06 z"
               style="fill:#455a64"
               id="path286" /><path
               d="m 231.69,143 c 0,0 2.48,-24 23.92,-30.25 a 13,13 0 0 1 4.29,2.68 c 0,0 -20.2,-0.84 -25.43,27.57 z"
               style="fill:#263238"
               id="path288" /><path
               d="m 216.29,144.16 c 0,0 -4.93,-22.19 13,-35.56 a 12.9,12.9 0 0 1 5,1 c 0,0 -20.29,6.25 -15.29,34.69 z"
               style="fill:#263238"
               id="path290" /><path
               d="m 253,65.59 a 7.46,7.46 0 0 1 13.25,-1.59 22.55,22.55 0 0 1 2,4.87 7.42,7.42 0 0 0 3.05,4.13 c 1.81,1 4.18,0.64 5.83,1.88 1.83,1.37 1.88,4.39 0.34,6.09 a 5.8,5.8 0 0 1 -6.33,1.21 12.7,12.7 0 0 1 0.87,4.19 4.39,4.39 0 0 1 -1.83,3.7 A 4.28,4.28 0 0 1 266,90 a 10.07,10.07 0 0 1 -3.14,-3 10.44,10.44 0 0 1 -1.06,2.89 3.6,3.6 0 0 1 -2.4,1.79 3.47,3.47 0 0 1 -3.22,-1.59 7.93,7.93 0 0 1 -1.18,-3.54 25.58,25.58 0 0 1 0.6,-9.3 c 0.47,-1.94 1.14,-3.93 0.77,-5.9 -0.37,-1.97 -2.31,-3.81 -4.22,-3.22"
               style="fill:#263238"
               id="path292" /><path
               d="m 278.08,79 c 0,0 -0.1,0.07 -0.32,0.15 a 6.64,6.64 0 0 1 -1,0.29 10,10 0 0 1 -3.77,0 9.83,9.83 0 0 1 -5,-2.56 10.09,10.09 0 0 1 -2,-2.68 13.22,13.22 0 0 1 -1.11,-3.39 19.42,19.42 0 0 0 -0.94,-3.34 5.63,5.63 0 0 0 -1.9,-2.45 6.21,6.21 0 0 0 -5.1,-1 7.47,7.47 0 0 0 -3.19,1.73 c -0.65,0.58 -0.93,1 -1,1 a 1.09,1.09 0 0 1 0.18,-0.31 5.42,5.42 0 0 1 0.65,-0.8 7.28,7.28 0 0 1 3.24,-1.93 6.49,6.49 0 0 1 5.47,0.95 6,6 0 0 1 2.09,2.64 18.74,18.74 0 0 1 1,3.43 13.35,13.35 0 0 0 1.1,3.27 9.63,9.63 0 0 0 1.88,2.57 9.5,9.5 0 0 0 4.71,2.53 10.38,10.38 0 0 0 3.67,0.12 c 0.86,-0.1 1.33,-0.22 1.34,-0.22 z"
               style="fill:#455a64"
               id="path294" /><path
               d="m 261.3,90.76 c 0,0 -0.1,0 -0.25,-0.16 a 3.36,3.36 0 0 1 -0.61,-0.63 5.85,5.85 0 0 1 -1.13,-3 11.75,11.75 0 0 1 0.53,-4.73 41.33,41.33 0 0 0 1.52,-5.52 8.12,8.12 0 0 0 -1,-5.39 7.81,7.81 0 0 0 -3.36,-3.07 8.56,8.56 0 0 0 -3,-0.84 8.45,8.45 0 0 1 -1.15,-0.08 3.22,3.22 0 0 1 1.17,-0.12 7.84,7.84 0 0 1 3.13,0.71 8,8 0 0 1 3.58,3.14 8.44,8.44 0 0 1 1.14,5.71 36.53,36.53 0 0 1 -1.57,5.59 12.08,12.08 0 0 0 -0.63,4.55 6,6 0 0 0 0.93,2.93 c 0.4,0.61 0.74,0.88 0.7,0.91 z"
               style="fill:#455a64"
               id="path296" /><path
               d="m 218.81,78.71 c -5,-11.54 1.85,-18.57 6.31,-21.09 2.65,-1.5 5.8,-1.81 8.85,-1.89 a 32.84,32.84 0 0 1 9,0.82 16.1,16.1 0 0 1 7.76,4.38 c 3.65,3.91 4.48,9.69 4.14,15 a 41.82,41.82 0 0 1 -5.31,18 4.43,4.43 0 0 1 -1.56,1.78 1.64,1.64 0 0 1 -2.16,-0.39"
               style="fill:#263238"
               id="path298" /><path
               d="m 245.72,65.24 a 3.25,3.25 0 0 1 2.91,3.3 v 0 l -1.85,44 c -0.07,5.2 -9.49,11.34 -15.05,11.22 v 0 c -5.61,-0.12 -4.43,-6.09 -4,-11 a 73.74,73.74 0 0 0 -0.14,-11.3 c 0,0 -7.14,-1.23 -8.59,-10.46 -0.73,-4.6 -0.5,-12.15 -0.11,-18.32 a 9.78,9.78 0 0 1 10.79,-9.11 z"
               style="fill:#b78876"
               id="path300" /><path
               d="m 221.28,78.64 a 1.18,1.18 0 0 0 1.14,1.2 1.14,1.14 0 0 0 1.23,-1.07 1.19,1.19 0 0 0 -1.15,-1.2 1.14,1.14 0 0 0 -1.22,1.07 z"
               style="fill:#263238"
               id="path302" /><path
               d="m 220.51,76.58 c 0.15,0.15 1.05,-0.51 2.33,-0.51 1.28,0 2.21,0.64 2.35,0.49 0.14,-0.15 -0.08,-0.35 -0.49,-0.65 a 3.26,3.26 0 0 0 -1.89,-0.58 3.12,3.12 0 0 0 -1.85,0.6 c -0.39,0.3 -0.52,0.58 -0.45,0.65 z"
               style="fill:#263238"
               id="path304" /><path
               d="m 233.77,78.64 a 1.18,1.18 0 0 0 1.14,1.2 1.14,1.14 0 0 0 1.23,-1.07 1.19,1.19 0 0 0 -1.15,-1.2 1.14,1.14 0 0 0 -1.22,1.07 z"
               style="fill:#263238"
               id="path306" /><path
               d="m 233.07,76.82 c 0.15,0.15 1.05,-0.51 2.32,-0.51 1.27,0 2.22,0.64 2.36,0.48 0.14,-0.16 -0.08,-0.34 -0.49,-0.64 a 3.21,3.21 0 0 0 -1.89,-0.58 3.12,3.12 0 0 0 -1.85,0.6 c -0.39,0.3 -0.52,0.58 -0.45,0.65 z"
               style="fill:#263238"
               id="path308" /><path
               d="m 228.43,86.29 a 8.45,8.45 0 0 0 -2.07,-0.37 c -0.33,0 -0.64,-0.1 -0.69,-0.33 a 1.62,1.62 0 0 1 0.22,-1 q 0.45,-1.18 1,-2.49 a 43.22,43.22 0 0 0 2.11,-6.45 41.24,41.24 0 0 0 -2.69,6.3 c -0.32,0.88 -0.63,1.71 -0.92,2.5 a 1.83,1.83 0 0 0 -0.17,1.28 0.83,0.83 0 0 0 0.53,0.48 2.51,2.51 0 0 0 0.56,0.08 8.31,8.31 0 0 0 2.12,0 z"
               style="fill:#263238"
               id="path310" /><path
               d="M 227.55,101.41 A 23.56,23.56 0 0 0 240,98.1 c 0,0 -3,6.36 -12.28,5.49 z"
               style="fill:#aa6550"
               id="path312" /><path
               d="m 229,89.37 a 2.33,2.33 0 0 1 2.07,-0.86 2.12,2.12 0 0 1 1.45,0.78 1.37,1.37 0 0 1 0.1,1.53 1.57,1.57 0 0 1 -1.68,0.42 4.8,4.8 0 0 1 -1.63,-1 1.27,1.27 0 0 1 -0.36,-0.37 0.42,0.42 0 0 1 0,-0.48"
               style="fill:#aa6550"
               id="path314" /><path
               d="m 232.19,87.17 c -0.21,0 -0.21,1.38 -1.4,2.36 -1.19,0.98 -2.66,0.83 -2.67,1 -0.01,0.17 0.33,0.27 0.95,0.28 a 3.41,3.41 0 0 0 2.24,-0.77 3,3 0 0 0 1.08,-2 c 0.05,-0.53 -0.1,-0.87 -0.2,-0.87 z"
               style="fill:#263238"
               id="path316" /><path
               d="m 232.49,74.58 c 0.13,0.35 1.41,0.18 2.9,0.36 1.49,0.18 2.72,0.59 2.91,0.28 0.09,-0.15 -0.12,-0.48 -0.61,-0.81 a 4.75,4.75 0 0 0 -2.15,-0.76 4.85,4.85 0 0 0 -2.27,0.27 c -0.55,0.22 -0.83,0.49 -0.78,0.66 z"
               style="fill:#263238"
               id="path318" /><path
               d="m 221,72.88 c 0.23,0.29 1.11,0 2.16,0 1.05,0 2,0.19 2.16,-0.11 0.16,-0.3 -0.05,-0.44 -0.44,-0.72 a 3,3 0 0 0 -1.76,-0.47 3,3 0 0 0 -1.72,0.58 c -0.4,0.28 -0.52,0.58 -0.4,0.72 z"
               style="fill:#263238"
               id="path320" /><path
               d="m 218.87,72.65 c 1.62,-7.89 3.82,-4.77 6.31,-8.54 3.6,3.65 11.89,7.85 16.95,8.68 a 3.27,3.27 0 0 1 1.48,0.47 3.2,3.2 0 0 1 0.84,2.68 34.88,34.88 0 0 0 0.67,8.17 13.37,13.37 0 0 0 4,7.06 c 3,-6.43 3.36,-13.92 2,-20.91 -0.56,-2.85 -1.5,-5.84 -3.78,-7.66 a 12.69,12.69 0 0 0 -5.78,-2.19 c -5.06,-0.93 -10.41,-1.16 -15.22,0.65 -4.81,1.81 -8.56,4 -9.21,9.13"
               style="fill:#263238"
               id="path322" /><path
               d="m 253.86,67.11 a 5.29,5.29 0 0 1 -1,0.56 8.21,8.21 0 0 1 -1.28,0.52 l -0.82,0.28 -0.94,0.24 a 24.33,24.33 0 0 1 -4.74,0.65 30.69,30.69 0 0 1 -5.88,-0.36 30.24,30.24 0 0 1 -5.64,-1.54 22,22 0 0 1 -2.33,-1.07 l -1,-0.54 -0.9,-0.58 a 14.26,14.26 0 0 1 -1.48,-1.09 l -0.58,-0.48 -0.45,-0.45 a 4.78,4.78 0 0 1 -0.78,-0.88 43.46,43.46 0 0 0 3.49,2.59 l 0.9,0.54 1,0.51 a 24.8,24.8 0 0 0 2.3,1 31.47,31.47 0 0 0 5.56,1.48 33.34,33.34 0 0 0 5.74,0.41 26.07,26.07 0 0 0 4.66,-0.53 c 2.63,-0.57 4.12,-1.37 4.17,-1.26 z"
               style="fill:#455a64"
               id="path324" /><path
               d="m 251.24,60.87 a 3.71,3.71 0 0 1 -0.8,0.65 6.42,6.42 0 0 1 -1,0.64 l -0.67,0.36 -0.78,0.34 a 24.34,24.34 0 0 1 -9.09,1.62 40.81,40.81 0 0 1 -9.19,-1 25.66,25.66 0 0 1 -2.7,-0.73 3.82,3.82 0 0 1 -1,-0.37 c 0,-0.08 1.43,0.31 3.74,0.74 a 47.76,47.76 0 0 0 9.1,0.87 26.31,26.31 0 0 0 9,-1.45 35.11,35.11 0 0 0 3.39,-1.67 z"
               style="fill:#455a64"
               id="path326" /><path
               d="m 222.79,58.86 c 0,-0.06 0.32,-0.12 0.81,0 a 3.27,3.27 0 0 1 1.65,1.08 3.35,3.35 0 0 1 0.76,1.83 c 0,0.51 -0.09,0.81 -0.16,0.8 a 6.38,6.38 0 0 0 -1,-2.29 C 224,59.18 222.76,59 222.79,58.86 Z"
               style="fill:#455a64"
               id="path328" /><path
               d="m 270.61,68.83 a 1.06,1.06 0 0 1 0.28,-0.33 2,2 0 0 1 1.11,-0.5 2.9,2.9 0 0 1 1.93,0.43 2.48,2.48 0 0 1 1.12,2.35 3.4,3.4 0 0 1 -1.77,2.63 3.52,3.52 0 0 1 -3.6,-0.38 4,4 0 0 1 -1.33,-1.54 5.45,5.45 0 0 1 -0.49,-2 36.52,36.52 0 0 0 -0.11,-4.19 7.79,7.79 0 0 0 -4.94,-5.71 7.1,7.1 0 0 0 -6.2,0.77 8.07,8.07 0 0 0 -2.93,3.21 c -0.46,0.95 -0.56,1.53 -0.61,1.52 a 1.28,1.28 0 0 1 0.05,-0.43 5.26,5.26 0 0 1 0.38,-1.17 8,8 0 0 1 5.84,-4.63 7.12,7.12 0 0 1 3.63,0.28 8.2,8.2 0 0 1 5.29,6.07 34.37,34.37 0 0 1 0.11,4.25 4.92,4.92 0 0 0 0.43,1.85 3.71,3.71 0 0 0 1.2,1.33 3.1,3.1 0 0 0 3.13,0.38 3,3 0 0 0 1.61,-2.28 2.14,2.14 0 0 0 -0.92,-2.06 2.73,2.73 0 0 0 -1.75,-0.48 2.6,2.6 0 0 0 -1.46,0.63 z"
               style="fill:#263238"
               id="path330" /><path
               d="m 246.3,73 a 3.67,3.67 0 0 1 -1,0.07 c -0.62,0 -1.52,0 -2.63,0 a 28.23,28.23 0 0 1 -8.57,-1.48 14.85,14.85 0 0 1 -7,-5.12 9.93,9.93 0 0 1 -1.25,-2.34 2.89,2.89 0 0 1 -0.23,-0.94 19.56,19.56 0 0 0 1.77,3.06 15.42,15.42 0 0 0 6.88,4.85 31.75,31.75 0 0 0 8.41,1.6 31.65,31.65 0 0 1 3.62,0.3 z"
               style="fill:#263238"
               id="path332" /><path
               d="m 259.44,95.62 a 1.61,1.61 0 0 1 -0.44,0.88 3.41,3.41 0 0 1 -2.4,1.17 5.24,5.24 0 0 1 -3.71,-1.4 3.33,3.33 0 0 1 -1.13,-2.15 2.35,2.35 0 0 1 1.24,-2.32 1.87,1.87 0 0 1 2.46,0.87 1.56,1.56 0 0 1 -0.1,1.34 2,2 0 0 1 -0.91,0.88 2.94,2.94 0 0 1 -2.2,0 4,4 0 0 1 -1.59,-1 4.14,4.14 0 0 1 -1.17,-2.4 2,2 0 0 1 0.05,-1 c 0.05,0 0,0.35 0.15,0.94 a 4.24,4.24 0 0 0 1.23,2.17 3.64,3.64 0 0 0 1.47,0.87 2.52,2.52 0 0 0 1.85,-0.05 1.36,1.36 0 0 0 0.75,-1.6 1.37,1.37 0 0 0 -1.76,-0.59 1.88,1.88 0 0 0 -0.92,1.82 2.92,2.92 0 0 0 0.95,1.83 5,5 0 0 0 3.37,1.38 3.31,3.31 0 0 0 2.26,-0.94 c 0.38,-0.39 0.51,-0.72 0.55,-0.7 z"
               style="fill:#263238"
               id="path334" /><path
               d="m 216.87,144 c 0,0.06 -0.08,0.2 -0.06,0.42 0.02,0.22 0.19,0.42 0.46,0.31 0.27,-0.11 0.25,-0.36 0.09,-0.54 -0.16,-0.18 -0.32,-0.19 -0.34,-0.26 -0.02,-0.07 0.21,-0.23 0.57,0 a 0.76,0.76 0 0 1 0.37,0.59 0.77,0.77 0 0 1 -0.49,0.73 0.76,0.76 0 0 1 -0.86,-0.17 0.72,0.72 0 0 1 -0.16,-0.67 c 0.11,-0.41 0.41,-0.47 0.42,-0.41 z"
               style="fill:#455a64"
               id="path336" /><path
               d="m 232.87,143.69 c 0,0.08 -0.21,0.14 -0.34,0.41 a 0.48,0.48 0 1 0 0.86,0.1 c -0.07,-0.29 -0.27,-0.4 -0.25,-0.48 0.02,-0.08 0.36,-0.08 0.59,0.34 a 0.93,0.93 0 0 1 0,0.82 0.91,0.91 0 0 1 -0.92,0.46 0.87,0.87 0 0 1 -0.6,-1.45 c 0.34,-0.36 0.68,-0.26 0.66,-0.2 z"
               style="fill:#455a64"
               id="path338" /><path
               d="m 217.9,152.59 c 0,0 0,0.53 0,1.48 a 14.14,14.14 0 0 0 0.65,3.92 7,7 0 0 0 1.35,2.31 4.61,4.61 0 0 0 2.66,1.36 4.87,4.87 0 0 0 3.27,-0.45 6.27,6.27 0 0 0 2.48,-2.59 16,16 0 0 0 1.7,-6 l 0.25,0.26 c -3.58,0 -6.64,-0.07 -8.84,-0.12 l -2.59,-0.07 a 6.8,6.8 0 0 1 -1,-0.06 4.34,4.34 0 0 1 0.86,-0.06 l 2.54,-0.07 c 2.19,-0.05 5.32,-0.1 9,-0.11 h 0.26 v 0.26 a 15.75,15.75 0 0 1 -1.74,6.26 6.71,6.71 0 0 1 -2.69,2.79 5.41,5.41 0 0 1 -3.59,0.48 5,5 0 0 1 -2.89,-1.55 7.24,7.24 0 0 1 -1.39,-2.49 13,13 0 0 1 -0.5,-4 4.73,4.73 0 0 1 0.21,-1.55 z"
               style="fill:#455a64"
               id="path340" /><path
               d="m 256.84,203 a 2.21,2.21 0 0 1 -0.77,0.39 8.18,8.18 0 0 1 -2.31,0.47 9,9 0 0 1 -9.63,-9.88 8,8 0 0 1 0.53,-2.29 c 0.21,-0.52 0.37,-0.78 0.4,-0.76 a 15.72,15.72 0 0 0 -0.56,3.07 8.9,8.9 0 0 0 9.25,9.49 16.28,16.28 0 0 0 3.09,-0.49 z"
               style="fill:#455a64"
               id="path342" /><path
               d="m 162.5,224.24 c 0,-0.14 21.7,-0.26 48.45,-0.26 26.75,0 48.45,0.12 48.45,0.26 0,0.14 -21.69,0.26 -48.45,0.26 -26.76,0 -48.45,-0.11 -48.45,-0.26 z"
               style="fill:#455a64"
               id="path344" /></g><text
             xml:space="preserve"
             style="font-style:normal;font-variant:normal;font-weight:normal;font-stretch:normal;font-size:176px;font-family:Inter;-inkscape-font-specification:Inter;fill:#ff725e;fill-opacity:1;stroke-width:0.377953;stroke-linecap:round;stroke-dasharray:0.377952, 0.755905"
             x="279.25003"
             y="580.5"
             id="text7706"><tspan
               sodipodi:role="line"
               id="tspan7704"
               x="279.25003"
               y="580.5"
               style="font-style:normal;font-variant:normal;font-weight:bold;font-stretch:normal;font-size:176px;font-family:Inter;-inkscape-font-specification:'Inter Bold';fill:#ff725e;fill-opacity:1;stroke-width:0.377953">mgmt.app</tspan></text></g></g></g></g></svg>
