<?xml version="1.0" encoding="UTF-8" standalone="no"?>
<svg
   version="1.1"
   class="pattern"
   viewBox="0 0 400 400"
   id="svg16"
   sodipodi:docname="pattern.svg"
   inkscape:version="1.3.2 (091e20e, 2023-11-25, custom)"
   xmlns:inkscape="http://www.inkscape.org/namespaces/inkscape"
   xmlns:sodipodi="http://sodipodi.sourceforge.net/DTD/sodipodi-0.dtd"
   xmlns="http://www.w3.org/2000/svg"
   xmlns:svg="http://www.w3.org/2000/svg">
  <defs
     id="defs16" />
  <sodipodi:namedview
     id="namedview16"
     pagecolor="#ffffff"
     bordercolor="#000000"
     borderopacity="0.25"
     inkscape:showpageshadow="2"
     inkscape:pageopacity="0.0"
     inkscape:pagecheckerboard="0"
     inkscape:deskcolor="#d1d1d1"
     inkscape:zoom="0.50125"
     inkscape:cx="249.37656"
     inkscape:cy="630.42394"
     inkscape:window-width="1920"
     inkscape:window-height="991"
     inkscape:window-x="-9"
     inkscape:window-y="-9"
     inkscape:window-maximized="1"
     inkscape:current-layer="svg16" />
  <g
     class="shape-0"
     id="g1">
    <path
       id="path46"
       style="display:inline;fill:#252323;fill-opacity:1"
       d="M 0 100 A 100 100 0 0 0 100 0 A 100 100 0 0 0 0 -100 L 0 0 L 0 100 z "
       transform="rotate(90,100,100)" />
    <path
       id="path24"
       style="display:inline;fill:#252323;fill-opacity:1"
       d="M 0 100 L 0 0 A 100 100 0 0 0 100 -100 L 200 -100 A 100 100 0 0 0 100 0 A 100 100 0 0 1 0 100 z M 200 -100 L 300 -100 A 100 100 0 0 0 400 0 L 400 100 A 100 100 0 0 1 300 0 A 100 100 0 0 0 200 -100 z "
       transform="matrix(1,0,0,-1,0,300)" />
    <path
       d="M 0,0 H 100 A 100,100 0 0 1 0,100 Z"
       transform="matrix(0,-1,-1,0,400,400)"
       fill="#e1f5c4"
       id="path30"
       style="display:inline;fill:#70798c;fill-opacity:1" />
    <path
       id="path21"
       style="display:inline;fill:#ff6f5c;fill-opacity:1"
       d="M 0 -100 L 0 0 A 100 100 0 0 1 100 100 A 100 100 0 0 0 200 200 A 100 100 0 0 0 300 100 A 100 100 0 0 1 400 0 L 400 -100 A 100 100 0 0 0 300 0 A 100 100 0 0 1 200 100 A 100 100 0 0 1 100 0 A 100 100 0 0 0 0 -100 z "
       transform="translate(0,100)" />
    <path
       id="path22"
       style="display:inline;fill:#dad2bc;fill-opacity:1"
       d="M 0 100 L 0 0 A 100 100 0 0 0 100 -100 A 100 100 0 0 1 200 -200 A 100 100 0 0 1 300 -100 A 100 100 0 0 0 400 0 L 400 100 A 100 100 0 0 1 300 0 A 100 100 0 0 0 200 -100 A 100 100 0 0 0 100 0 A 100 100 0 0 1 0 100 z "
       transform="matrix(1,0,0,-1,0,200)" />
    <path
       d="M 0,0 H 100 A 100,100 0 0 1 0,100 Z"
       transform="matrix(1,0,0,-1,0,400)"
       fill="#e1f5c4"
       id="path26"
       style="display:inline;fill:#70798c;fill-opacity:1" />
    <path
       id="rect1"
       style="display:inline;fill:#70798c;fill-opacity:1"
       d="M 0 0 A 100 100 0 0 1 100 100 A 100 100 0 0 0 200 200 A 100 100 0 0 0 300 100 A 100 100 0 0 1 400 0 L 300 0 A 100 100 0 0 1 200 100 A 100 100 0 0 1 100 0 L 0 0 z " />
  </g>
  <g
     class="shape-0"
     id="g18">
    <path
       id="path12"
       style="display:inline;fill:#252323;fill-opacity:1"
       d="M 0 100 A 100 100 0 0 0 100 0 A 100 100 0 0 0 0 -100 L 0 0 L 0 100 z "
       transform="rotate(90,100,100)" />
    <path
       id="path13"
       style="display:inline;fill:#252323;fill-opacity:1"
       d="M 0 100 L 0 0 A 100 100 0 0 0 100 -100 L 200 -100 A 100 100 0 0 0 100 0 A 100 100 0 0 1 0 100 z M 200 -100 L 300 -100 A 100 100 0 0 0 400 0 L 400 100 A 100 100 0 0 1 300 0 A 100 100 0 0 0 200 -100 z "
       transform="matrix(1,0,0,-1,0,300)" />
    <path
       d="M 0,0 H 100 A 100,100 0 0 1 0,100 Z"
       transform="matrix(0,-1,-1,0,400,400)"
       fill="#e1f5c4"
       id="path14"
       style="display:inline;fill:#70798c;fill-opacity:1" />
    <path
       id="path15"
       style="display:inline;fill:#ff6f5c;fill-opacity:1"
       d="M 0 -100 L 0 0 A 100 100 0 0 1 100 100 A 100 100 0 0 0 200 200 A 100 100 0 0 0 300 100 A 100 100 0 0 1 400 0 L 400 -100 A 100 100 0 0 0 300 0 A 100 100 0 0 1 200 100 A 100 100 0 0 1 100 0 A 100 100 0 0 0 0 -100 z "
       transform="translate(0,100)" />
    <path
       id="path16"
       style="display:inline;fill:#dad2bc;fill-opacity:1"
       d="M 0 100 L 0 0 A 100 100 0 0 0 100 -100 A 100 100 0 0 1 200 -200 A 100 100 0 0 1 300 -100 A 100 100 0 0 0 400 0 L 400 100 A 100 100 0 0 1 300 0 A 100 100 0 0 0 200 -100 A 100 100 0 0 0 100 0 A 100 100 0 0 1 0 100 z "
       transform="matrix(1,0,0,-1,0,200)" />
    <path
       d="M 0,0 H 100 A 100,100 0 0 1 0,100 Z"
       transform="matrix(1,0,0,-1,0,400)"
       fill="#e1f5c4"
       id="path17"
       style="display:inline;fill:#70798c;fill-opacity:1" />
    <path
       id="path18"
       style="display:inline;fill:#70798c;fill-opacity:1"
       d="M 0 0 A 100 100 0 0 1 100 100 A 100 100 0 0 0 200 200 A 100 100 0 0 0 300 100 A 100 100 0 0 1 400 0 L 300 0 A 100 100 0 0 1 200 100 A 100 100 0 0 1 100 0 L 0 0 z " />
  </g>
</svg>
